# xmcd
#
# Track frame offsets:
# 150
# 15477
# 33081
# 51619
# 68327
# 84687
# 101132
# 122240
# 140978
# 152882
# 169583
# 185224
# 198723
# 221088
# 239061
# 253263
# 268311
# 284644
# 299438
# 313793
#
# Disc length: 4380 seconds
#
#
# Revision: 0
# Processed by: cddbd v1.5.2PL0 Copyright (c) Steve Scherf et al.
# Submitted via: FreeRIP 2.945 
#
DISCID=50111a14
DTITLE=Marcos Paulo e Rafael (ao Vivo) - não foi por acaso
DYEAR=2007
DGENRE=sertanejo
TTITLE0=Marcos Paulo e Rafael (ao Vivo) - eu vou prá goiás
TTITLE1=Marcos Paulo e Rafael (ao Vivo) - vem me namorar
TTITLE2=Marcos Paulo e Rafael (ao Vivo) - te cuida coração
TTITLE3=Marcos Paulo e Rafael (ao Vivo) - vem ficar comigo
TTITLE4=Marcos Paulo e Rafael (ao Vivo) - indiferença
TTITLE5=Marcos Paulo e Rafael (ao Vivo) - como eu te amo
TTITLE6=Marcos Paulo e Rafael (ao Vivo) - evidências
TTITLE7=Marcos Paulo e Rafael (ao Vivo) - frente a frente
TTITLE8=Marcos Paulo e Rafael (ao Vivo) - o campeão Par. Trio auto astral
TTITLE9=Marcos Paulo e Rafael (ao Vivo) - cai a noite
TTITLE10=Marcos Paulo e Rafael (ao Vivo) - não foi por acaso
TTITLE11=Marcos Paulo e Rafael (ao Vivo) - tocando em frente
TTITLE12=Marcos Paulo e Rafael (ao Vivo) - seu amor ainda é tudo - que pena
TTITLE13=Marcos Paulo e Rafael (ao Vivo) - só sei te amar - entre lágrimas
TTITLE14=Marcos Paulo e Rafael (ao Vivo) - morena cheirosa
TTITLE15=Marcos Paulo e Rafael (ao Vivo) - do outro lado da cidade
TTITLE16=Marcos Paulo e Rafael (ao Vivo) - o ipê e o prisioneiro
TTITLE17=Marcos Paulo e Rafael (ao Vivo) - bicho bom é mulher
TTITLE18=Marcos Paulo e Rafael (ao Vivo) - saudade de minha terra
TTITLE19=Marcos Paulo e Rafael (ao Vivo) - romaria
EXTD=aurora fm
EXTT0=
EXTT1=
EXTT2=
EXTT3=
EXTT4=
EXTT5=
EXTT6=
EXTT7=
EXTT8=
EXTT9=
EXTT10=
EXTT11=
EXTT12=
EXTT13=
EXTT14=
EXTT15=
EXTT16=
EXTT17=
EXTT18=
EXTT19=
PLAYORDER=
